<?xml version="1.0" encoding="utf-8"?>
<svg width="1112" height="834" viewBox="-556 -417 1112 834" xmlns="http://www.w3.org/2000/svg">
  <style>
svg { background-color:none; }

#looom {
--version:2; --tempo:120; --musicTime:0; 
}

#t0 {
--visible:1; --timeOffset:6; --speed:16; --bookmarkIndex:-1; --latched:0; --playMode:0; --masked:0; --blendMode:0; --pressureEnabled:0; 
stroke:#000000; stroke-opacity:1; fill-opacity:0; stroke-width:11.04275; stroke-linecap:round; stroke-linejoin:round;
}
@keyframes t0 { 0% { opacity: 1; } 4.166667% { opacity: 0; } }
#t0 .frame { animation:t0 1.5s calc(var(--index) * 0.0625s) steps(1) infinite; }

</style>
  <g id="w0" transform="translate(157.00 52.75) scale(0.74 0.74) rotate(-87.40)" class="weave">
    <g id="t0" transform="translate(-210.79 121.51) scale(1.17 1.17) rotate(-358.57)" class="thread">
      <g id="f0" transform="translate(231.97 -353.57)" style="--index:0; opacity:1;" class="frame">
        <path d="M56.79,-83.81L58.42,-33.45L61.70,14.47" />
        <path d="M65.07,52.87L66.15,95.84L68.18,115.74L71.12,165.47L73.46,242.91" />
        <path d="M73.55,232.72L75.53,271.07" />
        <path d="M-46.26,-96.98L-45.45,-82.39" />
        <path d="M-43.22,-49.13L-43.18,-29.59L-40.09,29.84L-39.86,47.48L-36.11,94.23L-34.66,133.92" />
        <path d="M-32.49,165.88L-30.02,221.21L-27.47,249.28" />
        <path d="M-151.19,-115.17L-149.94,-109.14L-147.95,-86.21L-145.97,-32.67L-141.97,17.45" />
        <path d="M-139.36,59.65L-138.15,76.69L-135.91,145.90L-132.67,180.45L-129.99,222.06" />
        <path d="M90.18,-71.27L72.55,-69.71" />
        <path d="M35.54,-71.96L27.35,-70.96L9.73,-71.77L-14.74,-70.98L-23.91,-69.71L-61.73,-67.08L-112.60,-66.17L-116.70,-65.88L-121.50,-64.00" />
        <path d="M-170.68,-63.96L-185.08,-62.26L-263.62,-59.89L-276.42,-58.73" />
        <path d="M-276.42,-58.73L-276.42,-58.73" />
        <path d="M-276.42,-58.73L-276.25,-58.74" />
        <path d="M114.02,30.10L109.60,30.81L101.92,30.16L44.17,31.95L29.09,30.88L-3.51,32.02L-15.87,33.65" />
        <path d="M-64.53,36.79L-97.90,37.69L-133.27,39.83L-168.78,42.55L-190.48,45.20L-194.79,44.70L-203.47,45.55L-231.82,46.13L-234.86,46.41L-236.55,47.52" />
        <path d="M142.16,142.65L92.46,144.09L87.14,144.85" />
        <path d="M43.75,145.67L-41.26,150.96L-71.41,151.94L-83.39,152.83L-87.80,154.03L-91.82,153.83L-96.80,155.32L-100.19,154.69L-111.12,155.04L-111.47,153.90L-112.88,154.02" />
        <path d="M-157.30,156.05L-168.08,155.98L-176.66,157.49L-188.41,157.95L-199.05,159.45L-217.95,159.40L-223.04,159.97L-222.20,160.53" />
        <path d="M-228.53,46.28L-235.03,45.92L-245.53,47.08" />
      </g>
      <g id="f1" transform="translate(231.97 -353.57)" style="--index:1; opacity:0;" class="frame">
        <path d="M39.41,-72.17L-70.75,-68.85L-76.81,-67.99L-98.58,-67.21L-110.35,-67.40L-117.68,-65.68" />
        <path d="M-169.37,-64.41L-189.27,-64.18L-217.01,-62.55L-223.46,-61.52L-278.82,-59.32L-301.87,-57.58L-305.62,-56.64L-306.66,-55.62" />
        <path d="M59.29,-52.20L59.84,-22.99L62.07,13.38" />
        <path d="M65.33,52.94L65.51,66.47L68.55,94.04L71.15,143.72L73.66,236.08L78.61,305.95" />
        <path d="M89.10,29.92L78.52,30.84L69.18,29.66L29.80,29.94L7.65,31.65L-6.88,34.43L-14.19,35.08L-18.07,34.62" />
        <path d="M-64.22,36.78L-70.06,36.22L-109.60,37.01L-136.11,40.98L-187.47,44.54L-195.48,46.19L-215.23,45.60L-233.63,46.11L-244.12,47.12L-252.44,49.44L-258.99,50.06L-261.27,51.11L-263.17,50.76" />
        <path d="M122.67,142.62L86.54,143.95" />
        <path d="M44.32,145.65L10.97,146.49L-9.69,148.47L-36.41,148.67L-59.92,151.33L-94.85,151.80L-112.45,154.26" />
        <path d="M-158.20,156.23L-184.28,157.82L-205.83,157.93L-229.84,160.45" />
        <path d="M-43.44,-48.30L-43.57,-41.73L-42.13,-27.73L-40.62,30.99L-33.54,130.94" />
        <path d="M-30.69,168.11L-30.66,176.33L-27.61,204.72L-27.00,223.65L-25.39,240.11L-23.85,277.34" />
        <path d="M-148.85,-96.20L-145.67,-23.48L-142.11,18.20" />
        <path d="M-138.06,59.53L-138.38,69.80L-136.71,83.54L-133.96,150.19L-132.29,176.42L-131.07,183.61L-129.00,230.16" />
      </g>
      <g id="f2" transform="translate(231.97 -353.57)" style="--index:2; opacity:0;" class="frame">
        <path d="M10.26,-71.14L-49.84,-67.79L-102.34,-66.35L-113.99,-65.31" />
        <path d="M-171.56,-65.75L-179.18,-65.25L-199.93,-66.06L-236.32,-64.72L-259.65,-61.25L-281.54,-59.55L-290.11,-57.80L-303.10,-57.38L-308.39,-58.36L-309.94,-57.98" />
        <path d="M43.88,30.81L37.60,31.66L-10.89,33.00L-16.21,33.82" />
        <path d="M-263.22,49.45L-184.15,45.82L-152.75,42.44L-101.12,39.69L-65.45,36.33" />
        <path d="M-65.45,36.33L-65.45,36.33" />
        <path d="M-65.45,36.33L-66.27,36.35" />
        <path d="M61.47,-20.58L66.66,119.56L68.09,140.85L70.33,156.71L70.76,172.71L73.16,195.38L74.74,231.69L77.33,258.37L77.34,271.19L79.45,285.64L80.17,300.15" />
        <path d="M100.31,142.86L88.67,143.98" />
        <path d="M46.80,146.31L-37.88,148.72L-84.95,152.88L-111.31,154.38" />
        <path d="M-155.25,155.81L-188.89,157.80L-195.43,159.25L-216.20,160.01L-221.20,160.99" />
        <path d="M-214.66,159.37L-218.81,160.74L-229.99,161.10" />
        <path d="M-41.88,-35.63L-40.76,-5.70L-38.40,23.79L-36.59,79.47L-34.69,100.43L-33.85,123.72L-33.21,125.42" />
        <path d="M-33.65,119.77L-33.22,132.80" />
        <path d="M-30.67,168.85L-22.96,276.73" />
        <path d="M-147.38,-76.14L-146.56,-58.10L-144.45,-36.57L-141.95,17.97" />
        <path d="M-141.95,17.97L-141.95,17.97" />
        <path d="M-141.95,17.97L-141.91,16.71" />
        <path d="M-138.85,62.99L-134.39,131.90L-130.91,168.48L-127.30,241.52" />
      </g>
      <g id="f3" transform="translate(231.97 -353.57)" style="--index:3; opacity:0;" class="frame">
        <path d="M64.00,17.11L65.87,77.54L69.22,137.38L69.85,172.57L72.70,214.27L73.88,245.51L74.97,251.14L76.10,273.77L79.57,299.68" />
        <path d="M19.52,32.17L-12.61,33.05L-16.12,33.99" />
        <path d="M-63.05,36.90L-111.18,38.94L-147.86,43.41L-163.98,43.37L-171.02,44.50L-180.07,44.38L-188.01,45.38L-224.50,45.99L-240.03,49.19L-251.47,49.00L-257.25,50.33L-263.10,50.35L-262.98,51.42" />
        <path d="M-38.89,-3.71L-36.60,54.02L-32.94,105.71L-32.21,128.34" />
        <path d="M-32.21,128.34L-32.18,129.17L-32.21,128.34" />
        <path d="M-32.21,128.34L-32.22,128.18" />
        <path d="M-29.49,169.30L-26.72,196.56L-24.58,247.47L-23.65,252.85L-22.57,276.48" />
        <path d="M-142.98,-26.77L-141.17,-5.97L-140.16,20.11" />
        <path d="M-137.92,63.70L-137.72,75.28L-136.54,83.53L-132.72,145.80L-129.56,174.43L-127.40,228.72L-126.12,240.39" />
        <path d="M-126.12,240.39L-126.12,240.39" />
        <path d="M-126.12,240.39L-126.13,240.09" />
        <path d="M-310.67,-57.88L-190.10,-61.94L-136.38,-66.81L-35.76,-69.58" />
        <path d="M-234.53,163.14L-157.59,156.78" />
        <path d="M-109.16,154.57L-106.06,153.57L-68.08,150.77L-40.02,146.50L46.24,144.02" />
      </g>
      <g id="f4" transform="translate(231.97 -353.57)" style="--index:4; opacity:0;" class="frame">
        <path d="M66.15,78.45L65.81,93.15L66.71,121.12L70.69,182.82L72.11,218.98L73.92,244.12L74.89,248.76L77.31,288.42L79.11,300.52" />
        <path d="M-36.72,32.60L-33.31,96.85L-30.61,129.61" />
        <path d="M-29.66,166.84L-22.15,273.83" />
        <path d="M-141.88,5.06L-140.49,24.79L-139.79,26.33" />
        <path d="M-137.20,65.99L-128.34,184.16L-125.97,206.50L-124.84,231.26L-123.87,238.30L-123.54,236.31" />
        <path d="M-309.78,-58.22L-272.09,-59.54L-231.88,-62.23L-141.43,-64.75L-102.84,-66.74L-99.98,-67.50L-84.36,-67.26L-87.58,-68.05" />
        <path d="M-263.14,49.12L-233.76,47.43L-227.37,46.32L-214.73,45.67L-206.48,44.18L-105.61,40.66L-67.93,38.36" />
        <path d="M-16.17,34.97L-2.29,34.11" />
        <path d="M-233.31,162.69L-155.63,158.94" />
        <path d="M-109.19,153.57L-73.49,151.19L-61.32,149.07L-39.67,146.90L36.15,144.76" />
      </g>
      <g id="f5" transform="translate(231.97 -353.57)" style="--index:5; opacity:0;" class="frame">
        <path d="M68.25,122.95L67.89,132.16L69.54,160.44L71.25,174.67L72.35,201.07L73.25,228.63L73.29,268.20L75.46,291.77L77.55,300.90" />
        <path d="M77.55,300.90L77.55,300.90" />
        <path d="M77.55,300.90L77.44,297.70" />
        <path d="M-34.17,73.07L-31.99,120.04L-31.06,126.25" />
        <path d="M-28.23,169.92L-28.37,165.82" />
        <path d="M-28.37,165.82L-28.37,165.82" />
        <path d="M-28.37,165.82L-25.91,193.66L-24.50,224.72L-21.29,249.83L-20.43,273.69" />
        <path d="M-138.39,66.77L-138.38,74.97L-136.29,93.95L-133.09,113.39L-127.82,157.38L-126.99,175.09L-125.33,183.58L-124.36,195.37L-121.83,235.77" />
        <path d="M-232.60,161.85L-187.28,159.48L-157.68,156.71" />
        <path d="M-109.15,152.26L-55.61,149.79L-18.89,146.39L7.97,145.52" />
        <path d="M-262.77,47.47L-155.34,43.75L-147.08,42.25L-121.29,41.32L-97.51,39.24L-71.46,39.22" />
        <path d="M-306.40,-57.84L-302.00,-58.98L-294.93,-59.21L-265.79,-58.01L-229.47,-59.18L-208.87,-60.02L-201.17,-61.42L-151.82,-63.26" />
      </g>
      <g id="f6" transform="translate(231.97 -353.57)" style="--index:6; opacity:0;" class="frame">
        <path d="M-307.64,-57.88L-273.04,-59.10L-263.24,-58.67L-229.93,-60.40L-218.49,-60.04" />
        <path d="M-265.15,47.47L-268.94,47.51" />
        <path d="M-268.94,47.51L-269.53,47.53L-268.94,47.51" />
        <path d="M-268.94,47.51L-196.89,45.33L-168.69,42.78L-111.52,40.85" />
        <path d="M-231.30,160.98L-205.28,159.89L-173.58,155.66L-147.53,155.48" />
        <path d="M-109.25,151.85L-74.54,149.34L-62.36,150.00L-54.97,149.28" />
        <path d="M71.74,197.71L73.48,246.35L77.01,279.33L77.86,294.97" />
        <path d="M76.99,290.90L78.11,300.14" />
        <path d="M-31.12,124.37L-28.46,201.21L-27.02,217.67L-20.75,259.34L-19.83,274.57" />
        <path d="M-132.59,106.22L-129.21,150.04L-127.38,158.03L-126.66,170.24L-125.04,179.54L-120.67,233.15" />
        <path d="M-120.67,233.15L-120.65,233.68L-120.67,233.15" />
        <path d="M-120.67,233.15L-120.68,232.94" />
      </g>
      <g id="f7" transform="translate(231.97 -353.57)" style="--index:7; opacity:0;" class="frame">
        <path d="M75.39,244.07L75.14,249.24L77.12,264.46L79.71,298.94" />
        <path d="M-29.24,187.44L-20.09,272.04" />
        <path d="M-20.09,272.04L-20.09,272.04" />
        <path d="M-20.09,272.04L-20.16,269.74" />
        <path d="M-127.93,146.15L-128.31,151.90L-126.57,160.21L-124.85,177.41L-121.07,218.26L-120.40,233.75" />
        <path d="M-256.54,-59.46L-280.21,-59.51L-306.07,-58.18" />
        <path d="M-268.26,48.39L-242.97,47.00L-201.78,42.05L-191.91,41.89L-180.69,43.25L-167.22,42.81" />
        <path d="M-230.54,161.53L-194.28,159.04L-186.93,157.32L-159.59,156.12" />
        <path d="M-164.37,156.18L-154.60,155.63L-149.29,154.46" />
        <path d="M-110.47,152.56L-102.59,151.40L-81.57,150.72" />
      </g>
      <g id="f8" transform="translate(231.97 -353.57)" style="--index:8; opacity:0;" class="frame">
        <path d="M78.00,279.12L79.68,297.96" />
        <path d="M-24.81,225.07L-23.38,246.28L-22.18,257.90L-20.79,262.53L-20.28,271.21" />
        <path d="M-20.28,271.21L-20.28,271.21" />
        <path d="M-20.28,271.21L-20.29,271.05" />
        <path d="M-123.54,182.86L-122.69,206.64L-120.45,232.19" />
        <path d="M-289.36,-60.11L-306.08,-58.34" />
        <path d="M-268.13,49.69L-259.47,48.10L-235.24,47.16L-222.06,45.33" />
        <path d="M-228.60,160.56L-205.50,160.23L-155.98,156.00" />
      </g>
      <g id="f9" transform="translate(231.97 -353.57)" style="--index:9; opacity:0;" class="frame">
        <path d="M78.62,293.23L79.56,299.51" />
        <path d="M-21.09,253.28L-19.04,273.65" />
        <path d="M-121.77,201.93L-119.96,229.79" />
        <path d="M-308.44,-59.75L-303.65,-59.34" />
        <path d="M-267.06,49.75L-243.85,47.75" />
        <path d="M-226.87,160.68L-188.87,158.63" />
        <path d="M-142.97,-161.00" />
        <path d="M187.47,-75.65L191.57,-76.35" />
      </g>
      <g id="f10" transform="translate(231.97 -353.57)" style="--index:10; opacity:0;" class="frame">
        <path d="M-19.28,266.43L-18.99,272.75" />
        <path d="M-268.75,50.79L-262.29,50.01" />
        <path d="M-119.35,218.11L-119.59,223.70L-118.93,225.98" />
        <path d="M-118.66,221.87L-118.75,231.31" />
        <path d="M-227.16,162.08L-224.14,161.24L-211.75,160.43" />
        <path d="M-45.78,-193.79L-45.76,-198.39" />
        <path d="M225.52,25.42L234.22,24.81" />
        <path d="M-142.92,-159.37L-142.48,-148.46" />
        <path d="M175.76,-73.95L190.84,-75.35" />
      </g>
      <g id="f11" transform="translate(231.97 -353.57)" style="--index:11; opacity:0;" class="frame">
        <path d="M-119.04,224.91L-119.18,231.25" />
        <path d="M-225.93,161.79" />
        <path d="M52.65,-231.88L52.06,-237.76" />
        <path d="M-46.01,-183.43L-46.83,-200.89" />
        <path d="M-142.07,-135.67L-142.57,-155.92L-143.39,-160.83" />
        <path d="M272.61,130.87L277.68,130.45" />
        <path d="M214.39,26.60L232.40,24.71" />
        <path d="M161.03,-74.47L190.67,-75.99" />
      </g>
      <g id="f12" transform="translate(231.97 -353.57)" style="--index:12; opacity:0;" class="frame">
        <path d="M52.20,-238.10L51.52,-233.80L51.74,-226.75L52.89,-222.02" />
        <path d="M-48.37,-200.53L-44.21,-160.86" />
        <path d="M-44.21,-160.86L-44.21,-160.86" />
        <path d="M-44.21,-160.86L-44.22,-161.16" />
        <path d="M-144.14,-161.30L-140.61,-131.03L-138.77,-104.73" />
        <path d="M262.23,130.05L259.03,130.65L277.95,130.77" />
        <path d="M193.36,27.77L189.80,27.55" />
        <path d="M189.80,27.55L189.80,27.55" />
        <path d="M189.80,27.55L234.17,25.88" />
        <path d="M140.14,-74.36L190.82,-76.17" />
      </g>
      <g id="f13" transform="translate(231.97 -353.57)" style="--index:13; opacity:0;" class="frame">
        <path d="M112.78,-73.64L188.11,-75.99L191.55,-76.76" />
        <path d="M154.52,26.57L233.88,24.15" />
        <path d="M233.88,24.15L233.88,24.15" />
        <path d="M233.88,24.15L233.80,24.16" />
        <path d="M199.90,132.97L204.45,133.74L219.98,133.73L277.24,131.54" />
        <path d="M50.74,-240.10L50.94,-226.08L55.83,-166.70L56.23,-154.48" />
        <path d="M-50.08,-205.14L-43.92,-156.65L-40.67,-112.19" />
        <path d="M-145.18,-165.60L-143.49,-143.99L-140.92,-125.69L-137.13,-74.40" />
      </g>
      <g id="f14" transform="translate(231.97 -353.57)" style="--index:14; opacity:0;" class="frame">
        <path d="M52.26,-241.22L50.76,-244.62L52.86,-197.40L58.92,-129.93L60.21,-107.48L61.97,-94.24" />
        <path d="M61.97,-94.24L61.97,-94.24" />
        <path d="M61.97,-94.24L61.93,-95.31" />
        <path d="M-50.28,-208.59L-47.35,-171.49L-44.91,-154.49L-41.39,-116.68L-39.37,-69.28L-38.14,-62.04" />
        <path d="M-38.14,-62.04L-38.14,-62.04" />
        <path d="M-38.14,-62.04L-38.16,-62.51" />
        <path d="M-146.88,-172.54L-144.07,-156.79L-142.50,-118.49L-140.67,-99.59L-137.25,-78.11L-135.64,-46.47L-133.32,-22.98" />
        <path d="M77.64,-72.25L115.84,-73.49L133.12,-75.20L177.02,-75.80L192.67,-74.75" />
        <path d="M148.81,134.96L178.35,135.48L190.82,134.34L232.63,133.14L249.26,131.29L266.69,130.73L277.64,131.61" />
        <path d="M106.76,26.96L127.85,25.71L179.50,26.09L233.54,24.01" />
      </g>
      <g id="f15" transform="translate(231.97 -353.57)" style="--index:15; opacity:0;" class="frame">
        <path d="M105.05,139.01L155.18,135.98L221.63,133.83L241.00,132.15L271.96,131.05" />
        <path d="M65.82,29.85L77.24,29.65L106.68,27.04L132.83,27.60L232.00,24.47" />
        <path d="M51.20,-243.40L51.07,-235.34L53.80,-204.25L54.59,-182.26L58.77,-146.85L59.53,-128.49L60.87,-117.69L63.73,-49.64L64.23,-49.74" />
        <path d="M10.76,-70.66L39.20,-70.76" />
        <path d="M81.42,-72.53L165.12,-75.01L196.47,-74.30" />
        <path d="M-51.25,-205.44L-48.70,-174.73L-47.82,-152.75L-39.99,-88.57L-37.29,-31.25L-35.86,-16.94" />
        <path d="M-147.76,-171.77L-146.64,-157.35L-143.94,-139.62L-138.95,-74.60L-138.28,-56.56L-135.59,-34.65L-133.01,9.52L-133.31,23.58" />
      </g>
      <g id="f16" transform="translate(231.97 -353.57)" style="--index:16; opacity:0;" class="frame">
        <path d="M56.28,141.32L81.42,141.01L96.57,139.28L133.11,137.36L156.04,134.64L178.13,133.85L204.20,131.19L253.72,129.43L271.18,129.68L272.94,130.78" />
        <path d="M16.50,33.26L83.07,29.62L170.25,27.46L212.45,25.27L231.85,25.21" />
        <path d="M-20.10,-69.01L29.15,-71.17L38.05,-70.64" />
        <path d="M79.14,-71.64L132.41,-74.52L196.39,-74.21" />
        <path d="M196.39,-74.21L196.39,-74.21" />
        <path d="M196.39,-74.21L196.08,-74.20" />
        <path d="M51.31,-242.74L51.40,-232.07L59.89,-137.78L62.92,-79.83L64.07,-36.43L66.11,-19.75" />
        <path d="M-51.31,-204.61L-51.68,-196.14L-44.31,-138.58L-41.47,-108.96L-38.27,-30.91L-36.80,-5.65L-35.01,9.55" />
        <path d="M-148.72,-170.84L-148.08,-153.78L-140.57,-63.39L-139.65,-40.17L-136.52,-12.70L-136.34,8.57L-134.50,32.23L-134.04,56.76" />
      </g>
      <g id="f17" transform="translate(231.97 -353.57)" style="--index:17; opacity:0;" class="frame">
        <path d="M10.09,144.63L122.70,138.34L185.95,131.70L273.77,131.16L276.43,131.98" />
        <path d="M-150.73,-172.01L-151.05,-161.56L-147.02,-128.20L-140.93,-26.43L-139.39,-12.27L-138.27,12.15L-136.88,19.75L-136.67,43.79L-135.32,49.91L-134.74,60.65L-132.77,70.02L-133.03,89.90L-131.75,101.60" />
        <path d="M49.69,-242.04L51.92,-198.42L55.51,-168.82L56.73,-133.81L59.10,-108.76L59.39,-90.05L62.23,-67.90L64.81,-18.81L66.19,-9.32L67.47,9.93" />
        <path d="M-17.60,33.78L21.08,32.37L47.48,32.26L67.90,30.93L94.78,30.63L235.89,25.82" />
        <path d="M-66.52,-67.51L15.58,-71.65L37.89,-71.12L36.41,-70.51" />
        <path d="M82.48,-72.25L85.89,-71.70L124.51,-72.13L157.94,-73.21L195.23,-72.45" />
        <path d="M-35.26,57.66L-37.12,4.77L-41.09,-43.87" />
        <path d="M-44.06,-87.44L-45.60,-112.36L-50.62,-163.43L-51.36,-186.13L-53.03,-207.02" />
      </g>
      <g id="f18" transform="translate(231.97 -353.57)" style="--index:18; opacity:0;" class="frame">
        <path d="M49.86,-236.87L50.72,-210.30L56.89,-136.69L57.73,-133.43L63.61,-22.79L65.65,-0.61L66.10,13.02L66.76,13.33" />
        <path d="M66.66,53.05L68.64,83.62" />
        <path d="M-49.21,-206.07L-48.93,-184.57L-43.52,-121.53L-42.41,-87.08" />
        <path d="M-41.24,-45.99L-38.11,-7.58L-37.04,25.46L-34.73,60.95L-32.89,76.73L-31.89,102.99" />
        <path d="M-31.89,102.99L-31.89,102.99" />
        <path d="M-31.89,102.99L-31.81,102.96" />
        <path d="M-151.88,-171.64L-152.31,-164.81L-149.35,-137.16L-147.06,-78.69L-145.57,-60.51L-144.39,-54.80L-142.72,-13.48L-140.36,6.07L-138.53,34.67L-137.32,41.35L-137.15,54.32L-133.49,75.71L-131.95,113.76L-133.04,122.98L-130.71,131.70L-129.74,140.87" />
        <path d="M-51.71,146.06L-36.24,146.05L-27.68,146.83L33.08,143.80L51.25,141.32L90.96,138.65L114.20,135.18L146.04,133.07L261.63,129.84L271.04,130.76L278.93,130.51" />
        <path d="M-78.17,34.69L-67.09,34.56L-63.59,35.27L-59.76,34.58" />
        <path d="M-15.62,33.64L11.01,33.34L74.79,30.05L101.77,30.66L127.73,29.90L143.79,28.07L204.21,24.96L226.39,24.24L238.75,25.07" />
        <path d="M-106.37,-66.70L-92.48,-66.74L26.10,-71.99" />
        <path d="M84.21,-72.21L153.11,-72.65L188.43,-73.71" />
      </g>
      <g id="f19" transform="translate(231.97 -353.57)" style="--index:19; opacity:0;" class="frame">
        <path d="M-84.58,149.26L-47.19,148.53L-18.32,145.96L38.07,143.06" />
        <path d="M96.47,143.96L175.74,138.69L207.21,135.12L248.81,132.30L263.20,132.07L274.23,133.03" />
        <path d="M-111.65,36.59L-74.54,35.06" />
        <path d="M-16.65,34.90L67.56,32.84L113.12,32.91L125.31,33.59L143.30,32.93L178.62,29.48L219.61,28.07L237.91,29.53" />
        <path d="M51.23,-227.55L51.34,-213.84L55.46,-167.84L57.61,-94.35L59.56,-63.95L60.82,-55.63L65.11,13.13" />
        <path d="M65.80,54.64L66.96,87.86L69.38,106.58L69.78,124.13" />
        <path d="M29.01,142.70L35.84,142.56L41.38,143.94L106.40,143.23" />
        <path d="M-50.15,-199.47L-50.51,-202.82" />
        <path d="M-50.51,-202.82L-50.51,-202.82" />
        <path d="M-50.51,-202.82L-47.66,-181.17L-45.80,-123.51L-43.41,-87.38" />
        <path d="M-41.87,-47.69L-41.40,-28.09L-38.00,18.52L-35.47,76.56L-32.45,123.59" />
        <path d="M182.84,-73.53L148.94,-72.18L81.03,-71.70" />
        <path d="M-152.79,-166.51L-152.94,-153.86L-147.42,-89.76L-142.44,-45.33L-138.92,17.39" />
        <path d="M-138.92,17.39L-138.92,17.39" />
        <path d="M-138.92,17.39L-138.93,17.10" />
        <path d="M-139.60,9.40L-138.34,30.72L-135.82,49.92L-133.78,77.11L-130.61,136.69" />
        <path d="M-130.61,136.69L-130.59,137.36L-130.61,136.69" />
        <path d="M-130.61,136.69L-130.63,136.29" />
        <path d="M-131.01,129.66L-128.95,162.59" />
        <path d="M-127.91,-66.50L-119.75,-65.86L-21.61,-69.29L16.83,-70.85L27.50,-71.62L28.07,-72.21" />
      </g>
      <g id="f20" transform="translate(231.97 -353.57)" style="--index:20; opacity:0;" class="frame">
        <path d="M52.72,-184.26L53.20,-161.69L58.23,-107.75L60.96,-20.81L62.60,11.65L63.36,12.28" />
        <path d="M65.48,57.61L67.18,112.81L69.71,157.88" />
        <path d="M-48.90,-160.85L-49.29,-157.39L-47.34,-138.00L-44.28,-86.38" />
        <path d="M-42.63,-48.41L-41.06,-5.28L-35.58,80.10L-33.77,126.43" />
        <path d="M-33.71,168.54L-32.81,184.02" />
        <path d="M53.99,-180.18L53.22,-183.62L52.72,-199.19" />
        <path d="M-48.79,-157.57L-49.75,-174.12" />
        <path d="M-153.59,-145.79L-152.50,-114.88L-144.07,-34.38L-141.19,16.19" />
        <path d="M-139.61,59.73L-137.84,89.08L-133.72,127.11L-129.60,178.30L-128.92,202.00" />
        <path d="M205.12,139.29L178.60,140.40L169.27,141.52L95.65,143.75" />
        <path d="M42.04,143.59L26.01,143.70L-75.71,149.13L-85.68,150.44L-103.42,151.02L-113.76,152.25L-114.30,153.01" />
        <path d="M197.82,140.11L211.11,139.02L224.03,139.09" />
        <path d="M-16.40,35.64L29.31,35.06L179.22,30.28" />
        <path d="M171.49,30.04L190.87,29.41" />
        <path d="M-179.29,40.42L-124.60,38.32L-100.15,36.30L-68.02,35.49" />
        <path d="M-190.31,-63.42L-186.81,-64.26L-172.18,-64.90" />
        <path d="M-128.24,-66.15L-124.91,-65.44L-110.60,-65.34L-59.05,-68.24L-20.77,-69.48L1.11,-71.59L28.94,-73.06" />
        <path d="M78.38,-72.12L127.44,-73.20L141.62,-72.27L159.11,-72.84L164.72,-72.28" />
        <path d="M173.06,30.56L178.10,30.73L190.61,29.26L205.00,29.21" />
      </g>
      <g id="f21" transform="translate(231.97 -353.57)" style="--index:21; opacity:0;" class="frame">
        <path d="M-203.94,-62.98L-172.89,-64.06L-171.10,-64.69" />
        <path d="M-129.04,-65.40L-82.56,-67.73L-40.33,-70.90L5.27,-72.55L31.42,-72.65" />
        <path d="M-203.10,41.51L-178.30,40.55L-172.08,39.45L-134.47,38.31L-105.04,35.56L-64.58,35.15" />
        <path d="M-17.34,34.67L103.50,30.93L125.08,31.80L164.29,31.25" />
        <path d="M-185.98,154.18L-189.64,154.79L-169.44,154.06L-161.10,152.97" />
        <path d="M-116.73,152.10L-88.45,151.35L-79.45,149.91L-55.24,148.79L-26.71,146.15L26.94,144.49L38.55,144.94" />
        <path d="M77.15,-71.75L131.08,-72.75L141.12,-71.36" />
        <path d="M141.12,-71.36L141.12,-71.36" />
        <path d="M141.12,-71.36L140.74,-71.35" />
        <path d="M89.32,143.29L116.53,143.23L179.17,140.63" />
        <path d="M54.11,-166.82L54.06,-152.52L55.86,-132.88L57.07,-95.40L58.10,-23.44L62.01,13.64" />
        <path d="M65.19,56.38L65.82,88.39L68.23,124.51L70.14,183.40" />
        <path d="M-49.19,-149.68L-49.08,-141.22L-46.93,-125.45L-45.01,-99.23L-44.89,-87.67" />
        <path d="M-43.98,-44.75L-43.95,-30.80L-41.19,8.93L-37.05,129.08" />
        <path d="M-34.66,167.10L-33.48,198.17" />
        <path d="M-153.58,-133.07L-151.89,-103.74L-146.88,-50.29L-142.75,15.91L-142.12,15.32" />
        <path d="M-141.16,62.66L-140.05,86.93L-134.42,159.00L-132.36,210.16" />
        <path d="M-131.82,206.69L-131.91,216.22" />
      </g>
      <g id="f22" transform="translate(231.97 -353.57)" style="--index:22; opacity:0;" class="frame">
        <path d="M-46.95,-47.15L-46.81,-32.92L-42.89,9.05L-40.66,119.41L-39.93,127.81" />
        <path d="M-17.87,35.76L-7.41,36.32L16.34,35.40L33.70,33.43L129.98,30.31L144.94,30.49" />
        <path d="M-65.68,37.06L-87.28,38.17L-140.11,38.98L-190.08,42.41L-215.23,42.98L-215.53,43.65" />
        <path d="M-125.41,-65.35L-78.03,-67.37L-71.07,-68.26L-5.67,-70.22L32.99,-69.73" />
        <path d="M-118.01,152.96L-104.06,152.27L-75.04,149.03L17.61,146.10L28.47,146.24L37.06,147.53" />
        <path d="M58.31,-133.21" />
        <path d="M57.32,-135.64" />
        <path d="M57.14,-136.87L56.78,-101.63L58.20,-50.03L62.24,10.84" />
        <path d="M65.29,54.33L64.70,76.35L68.00,178.47L69.59,199.52" />
        <path d="M-153.46,-121.67L-153.98,-124.77" />
        <path d="M-153.98,-124.77L-153.98,-124.77" />
        <path d="M-153.98,-124.77L-150.98,-90.54L-148.98,-54.32L-144.45,-13.67L-142.66,16.08" />
        <path d="M-140.60,62.15L-138.96,118.17L-133.44,181.87L-132.08,211.29" />
        <path d="M-132.08,211.29L-132.08,211.29" />
        <path d="M-132.08,211.29L-132.19,210.31" />
        <path d="M79.40,-71.33L92.40,-70.68L121.51,-71.21L140.87,-70.04" />
        <path d="M88.38,144.88L107.34,144.19L118.49,142.68L146.32,141.78" />
        <path d="M-171.01,-64.36L-181.26,-63.38L-218.74,-62.58L-221.01,-61.84" />
        <path d="M-160.86,155.17L-178.00,156.31L-190.22,155.30L-210.99,155.97L-212.12,156.67" />
        <path d="M-47.58,-87.00L-49.10,-131.45" />
        <path d="M-36.99,171.10L-37.43,167.84" />
        <path d="M-37.43,167.84L-37.43,167.84" />
        <path d="M-37.43,167.84L-35.73,208.01" />
      </g>
      <g id="f23" transform="translate(231.97 -353.57)" style="--index:23; opacity:0;" class="frame">
        <path d="M56.50,-112.87L57.86,-35.25L58.77,-20.08L61.10,-1.61L61.64,12.65L62.40,13.29" />
        <path d="M64.85,53.11L65.27,71.49L68.57,117.37L70.63,191.36L70.17,207.78L70.78,226.40" />
        <path d="M70.78,226.40L70.78,226.40" />
        <path d="M70.78,226.40L71.00,225.66" />
        <path d="M-47.22,-121.41L-45.88,-85.25" />
        <path d="M-45.45,-46.42L-45.94,-41.56L-44.21,6.82L-40.71,58.76L-38.96,131.11" />
        <path d="M-36.14,167.46L-33.50,218.61" />
        <path d="M-33.50,218.61L-33.50,218.61" />
        <path d="M-33.50,218.61L-33.11,217.46" />
        <path d="M70.87,216.22L72.24,246.23" />
        <path d="M-33.74,211.15L-32.94,227.87" />
        <path d="M-153.09,-122.75L-150.69,-107.14L-149.54,-92.40L-148.15,-36.37L-145.32,-15.21L-142.47,16.98" />
        <path d="M-139.77,62.53L-135.41,135.96L-132.58,167.56L-130.88,209.62" />
        <path d="M121.00,-71.53L112.07,-70.42L76.25,-69.26" />
        <path d="M35.02,-70.62L21.47,-69.87L-0.42,-70.80L-59.26,-69.30L-105.73,-67.14L-120.32,-66.00L-120.55,-65.35" />
        <path d="M-170.92,-64.36L-244.65,-60.99" />
        <path d="M-237.03,-61.32L-251.88,-60.68L-253.27,-59.97" />
        <path d="M135.07,30.48L117.30,30.08L48.71,32.45L24.35,32.09L2.85,32.79L-7.21,34.85L-16.18,34.73" />
        <path d="M-62.85,37.96L-68.16,36.57L-121.09,37.54L-187.94,42.42L-196.43,42.04L-216.92,44.10" />
        <path d="M148.15,142.62L143.45,141.46L117.81,142.62L108.23,143.83L92.03,144.02L88.61,144.80" />
        <path d="M40.52,147.33L35.98,146.74L11.18,147.62L-8.11,149.16L-101.32,153.00L-116.66,154.32" />
        <path d="M-159.36,155.45L-165.26,156.54L-191.29,157.38L-202.26,159.14L-213.03,159.16" />
      </g>
    </g>
  </g>
</svg>